<!-- https://materialdesignicons.com/ -->

<svg><defs>

	<!-- close 'X' -->
	<g id="close">
		<path d="M13.46,12L19,17.54V19H17.54L12,13.46L6.46,19H5V17.54L10.54,12L5,6.46V5H6.46L12,10.54L17.54,5H19V6.46L13.46,12Z" />
	</g>

	<!-- Menu (hamburger) -->
	<g id="menu">
		<path d="M3,6H21V8H3V6M3,11H21V13H3V11M3,16H21V18H3V16Z" />
	</g>

	<!-- More (dots), horizontal -->
	<g id="dots-horizontal">
		<path d="M16,12A2,2 0 0,1 18,10A2,2 0 0,1 20,12A2,2 0 0,1 18,14A2,2 0 0,1 16,12M10,12A2,2 0 0,1 12,10A2,2 0 0,1 14,12A2,2 0 0,1 12,14A2,2 0 0,1 10,12M4,12A2,2 0 0,1 6,10A2,2 0 0,1 8,12A2,2 0 0,1 6,14A2,2 0 0,1 4,12Z" />
	</g>

	<!-- More (dots), vertical -->
	<g id="dots-vertical">
		<path d="M12,16A2,2 0 0,1 14,18A2,2 0 0,1 12,20A2,2 0 0,1 10,18A2,2 0 0,1 12,16M12,10A2,2 0 0,1 14,12A2,2 0 0,1 12,14A2,2 0 0,1 10,12A2,2 0 0,1 12,10M12,4A2,2 0 0,1 14,6A2,2 0 0,1 12,8A2,2 0 0,1 10,6A2,2 0 0,1 12,4Z" />
	</g>
	
	<!-- Code-tags -->
	<g id="code-tags">
		 <path d="M14.6,16.6L19.2,12L14.6,7.4L16,6L22,12L16,18L14.6,16.6M9.4,16.6L4.8,12L9.4,7.4L8,6L2,12L8,18L9.4,16.6Z" />
	</g>

	<!-- Heart-outline -->
	<g id="heart-outline">
		<path d="M12.1,18.55L12,18.65L11.89,18.55C7.14,14.24 4,11.39 4,8.5C4,6.5 5.5,5 7.5,5C9.04,5 10.54,6 11.07,7.36H12.93C13.46,6 14.96,5 16.5,5C18.5,5 20,6.5 20,8.5C20,11.39 16.86,14.24 12.1,18.55M16.5,3C14.76,3 13.09,3.81 12,5.08C10.91,3.81 9.24,3 7.5,3C4.42,3 2,5.41 2,8.5C2,12.27 5.4,15.36 10.55,20.03L12,21.35L13.45,20.03C18.6,15.36 22,12.27 22,8.5C22,5.41 19.58,3 16.5,3Z" />
	</g>

	<!-- Heart-full -->
	<g id="heart">
		<path d="M12,21.35L10.55,20.03C5.4,15.36 2,12.27 2,8.5C2,5.41 4.42,3 7.5,3C9.24,3 10.91,3.81 12,5.08C13.09,3.81 14.76,3 16.5,3C19.58,3 22,5.41 22,8.5C22,12.27 18.6,15.36 13.45,20.03L12,21.35Z" />
	</g>
	
	<!-- Heart-broken -->
	<g id="heart-broken">
		<path d="M12,21.35L10.55,20.03C5.4,15.36 2,12.27 2,8.5C2,5.41 4.42,3 7.5,3C8.17,3 8.82,3.12 9.44,3.33L13,9.35L9,14.35L12,21.35V21.35M16.5,3C19.58,3 22,5.41 22,8.5C22,12.27 18.6,15.36 13.45,20.03L12,21.35L11,14.35L15.5,9.35L12.85,4.27C13.87,3.47 15.17,3 16.5,3Z" />
	</g>

	<!-- Heart-off (crossed)  -->
	<g id="heart-off">
		<path d="M1,4.27L2.28,3L20,20.72L18.73,22L15.18,18.44L13.45,20.03L12,21.35L10.55,20.03C5.4,15.36 2,12.27 2,8.5C2,7.55 2.23,6.67 2.63,5.9L1,4.27M7.5,3C9.24,3 10.91,3.81 12,5.08C13.09,3.81 14.76,3 16.5,3C19.58,3 22,5.41 22,8.5C22,11.07 20.42,13.32 17.79,15.97L5.27,3.45C5.95,3.16 6.7,3 7.5,3Z" />
	</g>

	<!-- Heart-pulse -->
	<g id="heart-pulse">
		<path d="M7.5,4A5.5,5.5 0 0,0 2,9.5C2,10 2.09,10.5 2.22,11H6.3L7.57,7.63C7.87,6.83 9.05,6.75 9.43,7.63L11.5,13L12.09,11.58C12.22,11.25 12.57,11 13,11H21.78C21.91,10.5 22,10 22,9.5A5.5,5.5 0 0,0 16.5,4C14.64,4 13,4.93 12,6.34C11,4.93 9.36,4 7.5,4V4M3,12.5A1,1 0 0,0 2,13.5A1,1 0 0,0 3,14.5H5.44L11,20C12,20.9 12,20.9 13,20L18.56,14.5H21A1,1 0 0,0 22,13.5A1,1 0 0,0 21,12.5H13.4L12.47,14.8C12.07,15.81 10.92,15.67 10.55,14.83L8.5,9.5L7.54,11.83C7.39,12.21 7.05,12.5 6.6,12.5H3Z" />
	</g>

	<!-- Link-variant -->
	<g id="link-variant">
		<path d="M10.59,13.41C11,13.8 11,14.44 10.59,14.83C10.2,15.22 9.56,15.22 9.17,14.83C7.22,12.88 7.22,9.71 9.17,7.76V7.76L12.71,4.22C14.66,2.27 17.83,2.27 19.78,4.22C21.73,6.17 21.73,9.34 19.78,11.29L18.29,12.78C18.3,11.96 18.17,11.14 17.89,10.36L18.36,9.88C19.54,8.71 19.54,6.81 18.36,5.64C17.19,4.46 15.29,4.46 14.12,5.64L10.59,9.17C9.41,10.34 9.41,12.24 10.59,13.41M13.41,9.17C13.8,8.78 14.44,8.78 14.83,9.17C16.78,11.12 16.78,14.29 14.83,16.24V16.24L11.29,19.78C9.34,21.73 6.17,21.73 4.22,19.78C2.27,17.83 2.27,14.66 4.22,12.71L5.71,11.22C5.7,12.04 5.83,12.86 6.11,13.65L5.64,14.12C4.46,15.29 4.46,17.19 5.64,18.36C6.81,19.54 8.71,19.54 9.88,18.36L13.41,14.83C14.59,13.66 14.59,11.76 13.41,10.59C13,10.2 13,9.56 13.41,9.17Z" />
	</g>

	<!-- Arrow-expand -->
	<g id="arrow-expand">
		<path d="M10,21V19H6.41L10.91,14.5L9.5,13.09L5,17.59V14H3V21H10M14.5,10.91L19,6.41V10H21V3H14V5H17.59L13.09,9.5L14.5,10.91Z" />
	</g>

	<!-- Arrow-collapse -->
	<g id="arrow-collapse">
		<path d="M19.5,3.09L15,7.59V4H13V11H20V9H16.41L20.91,4.5L19.5,3.09M4,13V15H7.59L3.09,19.5L4.5,20.91L9,16.41V20H11V13H4Z" />
	</g>

	<!-- Pencil -->
	<g id="pencil">
		 <path d="M20.71,7.04C21.1,6.65 21.1,6 20.71,5.63L18.37,3.29C18,2.9 17.35,2.9 16.96,3.29L15.12,5.12L18.87,8.87M3,17.25V21H6.75L17.81,9.93L14.06,6.18L3,17.25Z" />
	</g>

	<!-- Donkey -->
	<g id="donkey">
		<path d="M21.34,10.35L21.27,10.28L21.18,10.19L18,7V6A0.5,0.5 0 0,0 17.5,5.5C17.36,5.5 17.22,5.56 17.13,5.66L13.46,9H7C6.32,9 5.69,9.35 5.32,9.92L2.62,12.59C2.29,13.04 2.39,13.66 2.84,14C3.18,14.24 3.65,14.25 4,14L5,13.07V19H8V15H13V19H16V13.83C16,13.3 16.21,12.79 16.59,12.42L18,11L20,12V12C20.15,12.08 20.32,12.13 20.5,12.13C21.1,12.11 21.59,11.61 21.58,11C21.57,10.76 21.5,10.53 21.34,10.35Z" />
	</g>

	<!-- chevron-right (right legless arrow) -->
	<g id="chevron-right">
		 <path d="M8.59,16.58L13.17,12L8.59,7.41L10,6L16,12L10,18L8.59,16.58Z" />
	</g>
	<!-- chevron-right (left legless arrow) -->
	<g id="chevron-left">
		<path d="M15.41,16.58L10.83,12L15.41,7.41L14,6L8,12L14,18L15.41,16.58Z" />
	</g>
	<!-- chevron-right (up legless arrow) -->
	<g id="chevron-up">
		 <path d="M7.41,15.41L12,10.83L16.59,15.41L18,14L12,8L6,14L7.41,15.41Z" />
	</g>

	<!-- chevron-right (down legless arrow) -->
	<g id="chevron-down">
		 <path d="M7.41,8.58L12,13.17L16.59,8.58L18,10L12,16L6,10L7.41,8.58Z" />
	</g>

	<!-- send -->
	<g id="send">
		<path d="M2,21L23,12L2,3V10L17,12L2,14V21Z" />
	</g>
	
	<!-- eye-outline -->
	<g id="eye-outline">
		<path d="M12,9A3,3 0 0,1 15,12A3,3 0 0,1 12,15A3,3 0 0,1 9,12A3,3 0 0,1 12,9M12,4.5C17,4.5 21.27,7.61 23,12C21.27,16.39 17,19.5 12,19.5C7,19.5 2.73,16.39 1,12C2.73,7.61 7,4.5 12,4.5M3.18,12C4.83,15.36 8.24,17.5 12,17.5C15.76,17.5 19.17,15.36 20.82,12C19.17,8.64 15.76,6.5 12,6.5C8.24,6.5 4.83,8.64 3.18,12Z" />
	</g>

	<!-- file-image -->
	<g id="file-image">
		 <path d="M8.5,13.5L11,16.5L14.5,12L19,18H5M21,19V5C21,3.89 20.1,3 19,3H5A2,2 0 0,0 3,5V19A2,2 0 0,0 5,21H19A2,2 0 0,0 21,19Z" />
	</g>

	<!-- file-zip (zip-box) -->
	<g id="file-compressed">
		<path d="M14,17H12V15H10V13H12V15H14M14,9H12V11H14V13H12V11H10V9H12V7H10V5H12V7H14M19,3H5C3.89,3 3,3.89 3,5V19A2,2 0 0,0 5,21H19A2,2 0 0,0 21,19V5C21,3.89 20.1,3 19,3Z" />
	</g>

	<!-- file-cloud -->
	<g id="file-cloud">
		<path d="M13,9H18.5L13,3.5V9M6,2H14L20,8V20A2,2 0 0,1 18,22H6C4.89,22 4,21.1 4,20V4C4,2.89 4.89,2 6,2M15.68,15C15.34,13.3 13.82,12 12,12C10.55,12 9.3,12.82 8.68,14C7.17,14.18 6,15.45 6,17A3,3 0 0,0 9,20H15.5A2.5,2.5 0 0,0 18,17.5C18,16.18 16.97,15.11 15.68,15Z" />
	</g>

	<!-- file-pdf -->
	<g id="file-pdf">
		 <path d="M11.43,10.94C11.2,11.68 10.87,12.47 10.42,13.34C10.22,13.72 10,14.08 9.92,14.38L10.03,14.34V14.34C11.3,13.85 12.5,13.57 13.37,13.41C13.22,13.31 13.08,13.2 12.96,13.09C12.36,12.58 11.84,11.84 11.43,10.94M17.91,14.75C17.74,14.94 17.44,15.05 17,15.05C16.24,15.05 15,14.82 14,14.31C12.28,14.5 11,14.73 9.97,15.06C9.92,15.08 9.86,15.1 9.79,15.13C8.55,17.25 7.63,18.2 6.82,18.2C6.66,18.2 6.5,18.16 6.38,18.09L5.9,17.78L5.87,17.73C5.8,17.55 5.78,17.38 5.82,17.19C5.93,16.66 6.5,15.82 7.7,15.07C7.89,14.93 8.19,14.77 8.59,14.58C8.89,14.06 9.21,13.45 9.55,12.78C10.06,11.75 10.38,10.73 10.63,9.85V9.84C10.26,8.63 10.04,7.9 10.41,6.57C10.5,6.19 10.83,5.8 11.2,5.8H11.44C11.67,5.8 11.89,5.88 12.05,6.04C12.71,6.7 12.4,8.31 12.07,9.64C12.05,9.7 12.04,9.75 12.03,9.78C12.43,10.91 13,11.82 13.63,12.34C13.89,12.54 14.18,12.74 14.5,12.92C14.95,12.87 15.38,12.85 15.79,12.85C17.03,12.85 17.78,13.07 18.07,13.54C18.17,13.7 18.22,13.89 18.19,14.09C18.18,14.34 18.09,14.57 17.91,14.75M19,3H5C3.89,3 3,3.89 3,5V19A2,2 0 0,0 5,21H19A2,2 0 0,0 21,19V5C21,3.89 20.1,3 19,3M17.5,14.04C17.4,13.94 17,13.69 15.6,13.69C15.53,13.69 15.46,13.69 15.37,13.79C16.1,14.11 16.81,14.3 17.27,14.3C17.34,14.3 17.4,14.29 17.46,14.28H17.5C17.55,14.26 17.58,14.25 17.59,14.15C17.57,14.12 17.55,14.08 17.5,14.04M8.33,15.5C8.12,15.62 7.95,15.73 7.85,15.81C7.14,16.46 6.69,17.12 6.64,17.5C7.09,17.35 7.68,16.69 8.33,15.5M11.35,8.59L11.4,8.55C11.47,8.23 11.5,7.95 11.56,7.73L11.59,7.57C11.69,7 11.67,6.71 11.5,6.47L11.35,6.42C11.33,6.45 11.3,6.5 11.28,6.54C11.11,6.96 11.12,7.69 11.35,8.59Z" />
	</g>

	<!-- file-video -->
	<g id="file-video">
		 <path d="M17,10.5V7A1,1 0 0,0 16,6H4A1,1 0 0,0 3,7V17A1,1 0 0,0 4,18H16A1,1 0 0,0 17,17V13.5L21,17.5V6.5L17,10.5Z" />
	</g>

	<!-- file-word -->
	<g id="file-word">
		 <path d="M15.5,17H14L12,9.5L10,17H8.5L6.1,7H7.8L9.34,14.5L11.3,7H12.7L14.67,14.5L16.2,7H17.9M19,3H5C3.89,3 3,3.89 3,5V19A2,2 0 0,0 5,21H19A2,2 0 0,0 21,19V5C21,3.89 20.1,3 19,3Z" />
	</g>
	
	<!-- file-code (file-xml) -->
	<g id="file-code">
		  <path d="M11,6.5V9.33L8.33,12L11,14.67V17.5L5.5,12M13,6.43L18.57,12L13,17.57V14.74L15.74,12L13,9.26M5,3C3.89,3 3,3.9 3,5V19A2,2 0 0,0 5,21H19A2,2 0 0,0 21,19V5A2,2 0 0,0 19,3H5Z" />
	</g>

	<!-- file-text -->
	<g id="file-text">
		<path d="M14,17H7V15H14M17,13H7V11H17M17,9H7V7H17M19,3H5C3.89,3 3,3.89 3,5V19A2,2 0 0,0 5,21H19A2,2 0 0,0 21,19V5C21,3.89 20.1,3 19,3Z" />
	</g>
	
	<!-- hand-pointing-right -->
	<g id="hand-pointing-right">
		<path d="M21,9A1,1 0 0,1 22,10A1,1 0 0,1 21,11H16.53L16.4,12.21L14.2,17.15C14,17.65 13.47,18 12.86,18H8.5C7.7,18 7,17.27 7,16.5V10C7,9.61 7.16,9.26 7.43,9L11.63,4.1L12.4,4.84C12.6,5.03 12.72,5.29 12.72,5.58L12.69,5.8L11,9H21M2,18V10H5V18H2Z" />
	</g>

	<!-- script -->
	<g id="script">
		<path d="M14,20A2,2 0 0,0 16,18V5H9A1,1 0 0,0 8,6V16H5V5A3,3 0 0,1 8,2H19A3,3 0 0,1 22,5V6H18V18L18,19A3,3 0 0,1 15,22H5A3,3 0 0,1 2,19V18H12A2,2 0 0,0 14,20Z" />
	</g>

	<!-- account -->
	<g id="account">
		<path d="M12,4A4,4 0 0,1 16,8A4,4 0 0,1 12,12A4,4 0 0,1 8,8A4,4 0 0,1 12,4M12,14C16.42,14 20,15.79 20,18V20H4V18C4,15.79 7.58,14 12,14Z" />
	</g>

	<!-- magic wand (auto-fix) -->
	<g id="magic-wand">
		<path d="M7.5,5.6L5,7L6.4,4.5L5,2L7.5,3.4L10,2L8.6,4.5L10,7L7.5,5.6M19.5,15.4L22,14L20.6,16.5L22,19L19.5,17.6L17,19L18.4,16.5L17,14L19.5,15.4M22,2L20.6,4.5L22,7L19.5,5.6L17,7L18.4,4.5L17,2L19.5,3.4L22,2M13.34,12.78L15.78,10.34L13.66,8.22L11.22,10.66L13.34,12.78M14.37,7.29L16.71,9.63C17.1,10 17.1,10.65 16.71,11.04L5.04,22.71C4.65,23.1 4,23.1 3.63,22.71L1.29,20.37C0.9,20 0.9,19.35 1.29,18.96L12.96,7.29C13.35,6.9 14,6.9 14.37,7.29Z" />
	</g>

	<!-- dropbox -->
	<g id="dropbox">
		<path d="M12,14.56L16.35,18.16L18.2,16.95V18.3L12,22L5.82,18.3V16.95L7.68,18.16L12,14.56M7.68,2.5L12,6.09L16.32,2.5L22.5,6.5L18.23,9.94L22.5,13.36L16.32,17.39L12,13.78L7.68,17.39L1.5,13.36L5.77,9.94L1.5,6.5L7.68,2.5M12,13.68L18.13,9.94L12,6.19L5.87,9.94L12,13.68Z" />
	</g>

	<!-- google-drive -->
	<g id="google-drive">
		 <path d="M7.71,3.5L1.15,15L4.58,21L11.13,9.5M9.73,15L6.3,21H19.42L22.85,15M22.28,14L15.42,2H8.58L8.57,2L15.43,14H22.28Z" />
	</g>

	<!-- onedrive -->
	<g id="onedrive">
		<path d="M20.08,13.64C21.17,13.81 22,14.75 22,15.89C22,16.78 21.5,17.55 20.75,17.92L20.58,18H9.18L9.16,18V18C7.71,18 6.54,16.81 6.54,15.36C6.54,13.9 7.72,12.72 9.18,12.72L9.4,12.73L9.39,12.53A3.3,3.3 0 0,1 12.69,9.23C13.97,9.23 15.08,9.96 15.63,11C16.08,10.73 16.62,10.55 17.21,10.55A2.88,2.88 0 0,1 20.09,13.43L20.08,13.64M8.82,12.16C7.21,12.34 5.96,13.7 5.96,15.36C5.96,16.04 6.17,16.66 6.5,17.18H4.73A2.73,2.73 0 0,1 2,14.45C2,13 3.12,11.83 4.53,11.73L4.46,11.06C4.46,9.36 5.84,8 7.54,8C8.17,8 8.77,8.18 9.26,8.5C9.95,7.11 11.4,6.15 13.07,6.15C15.27,6.15 17.08,7.83 17.3,9.97H17.21C16.73,9.97 16.27,10.07 15.84,10.25C15.12,9.25 13.96,8.64 12.69,8.64C10.67,8.64 9,10.19 8.82,12.16Z" />
	</g>

	<!-- umbrella -->
	<g id="umbrella">
		<path d="M12,2A9,9 0 0,0 3,11H11V19A1,1 0 0,1 10,20A1,1 0 0,1 9,19H7A3,3 0 0,0 10,22A3,3 0 0,0 13,19V11H21A9,9 0 0,0 12,2Z" />
	</g>

	<!-- home -->
	<g id="home">
		<path d="M10,20V14H14V20H19V12H22L12,3L2,12H5V20H10Z" />
	</g>

	<!-- bank -->
	<g id="bank">
		<path d="M11.5,1L2,6V8H21V6M16,10V17H19V10M2,22H21V19H2M10,10V17H13V10M4,10V17H7V10H4Z" />
	</g>

	<!-- Asterisk -->
	<g id="asterisk">
		 <path d="M10,2H14L13.21,9.91L19.66,5.27L21.66,8.73L14.42,12L21.66,15.27L19.66,18.73L13.21,14.09L14,22H10L10.79,14.09L4.34,18.73L2.34,15.27L9.58,12L2.34,8.73L4.34,5.27L10.79,9.91L10,2Z" />
	</g>

	<!-- alert outline -->
	<g id="alert-outline">
		<path  d="M12,2L1,21H23M12,6L19.53,19H4.47M11,10V14H13V10M11,16V18H13V16" />
	</g>

	<!-- paperclip -->
	<g id="paperclip">
		<path d="M16.5,6V17.5A4,4 0 0,1 12.5,21.5A4,4 0 0,1 8.5,17.5V5A2.5,2.5 0 0,1 11,2.5A2.5,2.5 0 0,1 13.5,5V15.5A1,1 0 0,1 12.5,16.5A1,1 0 0,1 11.5,15.5V6H10V15.5A2.5,2.5 0 0,0 12.5,18A2.5,2.5 0 0,0 15,15.5V5A4,4 0 0,0 11,1A4,4 0 0,0 7,5V17.5A5.5,5.5 0 0,0 12.5,23A5.5,5.5 0 0,0 18,17.5V6H16.5Z" />
	</g>

	<!-- decagram (badge background) -->
	<g id="decagram">
		<path d="M23,12L20.56,9.22L20.9,5.54L17.29,4.72L15.4,1.54L12,3L8.6,1.54L6.71,4.72L3.1,5.53L3.44,9.21L1,12L3.44,14.78L3.1,18.47L6.71,19.29L8.6,22.47L12,21L15.4,22.46L17.29,19.28L20.9,18.46L20.56,14.78L23,12Z" />
	</g>

	<!-- arrow up -->
	<g id="arrow-up">
	  <path d="M13,20H11V8L5.5,13.5L4.08,12.08L12,4.16L19.92,12.08L18.5,13.5L13,8V20Z" />
	</g>

	<!-- arrow down -->
	<g id="arrow-down">
		<path d="M11,4H13V16L18.5,10.5L19.92,11.92L12,19.84L4.08,11.92L5.5,10.5L11,16V4Z" />
	</g>

	<!-- menu down -->
	<g id="menu-down">
		<path d="M7,10L12,15L17,10H7Z" />
	</g>

	<!-- run -->
	<g id="run">
		<path d="M13.5,5.5C14.59,5.5 15.5,4.58 15.5,3.5C15.5,2.38 14.59,1.5 13.5,1.5C12.39,1.5 11.5,2.38 11.5,3.5C11.5,4.58 12.39,5.5 13.5,5.5M9.89,19.38L10.89,15L13,17V23H15V15.5L12.89,13.5L13.5,10.5C14.79,12 16.79,13 19,13V11C17.09,11 15.5,10 14.69,8.58L13.69,7C13.29,6.38 12.69,6 12,6C11.69,6 11.5,6.08 11.19,6.08L6,8.28V13H8V9.58L9.79,8.88L8.19,17L3.29,16L2.89,18L9.89,19.38Z" />
	</g>

	<!-- ORCID log -->
	<g id="orcid">
		<path d="M17,12.37a3.07,3.07,0,0,1-3.35,3.1H11.71V9.27h1.85C15.91,9.27,17,10.69,17,12.37ZM22,12A10,10,0,1,1,12,2,10,10,0,0,1,22,12ZM8.74,8.18H7.54v8.37h1.2V8.18Zm.19-1.74a.79.79,0,1,0-.79.79A.79.79,0,0,0,8.93,6.44Zm9.28,5.93a4.14,4.14,0,0,0-4.45-4.19H10.51v8.37h3.26A4.22,4.22,0,0,0,18.21,12.37Z"/>
	</g>

	<!-- magnifying glass -->
	<g id="magnify">
		<path d="M9.5,3A6.5,6.5 0 0,1 16,9.5C16,11.11 15.41,12.59 14.44,13.73L14.71,14H15.5L20.5,19L19,20.5L14,15.5V14.71L13.73,14.44C12.59,15.41 11.11,16 9.5,16A6.5,6.5 0 0,1 3,9.5A6.5,6.5 0 0,1 9.5,3M9.5,5C7,5 5,7 5,9.5C5,12 7,14 9.5,14C12,14 14,12 14,9.5C14,7 12,5 9.5,5Z" />
	</g>

	<!-- Publish -->
	<g id="publish">
	</g>

	<!-- plus -->
	<g id="plus">
		<path d="M19,13H13V19H11V13H5V11H11V5H13V11H19V13Z" />
	</g>

	<!-- bell-outline -->
	<g id="bell-outline">
		<path d="M16,17H7V10.5C7,8 9,6 11.5,6C14,6 16,8 16,10.5M18,16V10.5C18,7.43 15.86,4.86 13,4.18V3.5A1.5,1.5 0 0,0 11.5,2A1.5,1.5 0 0,0 10,3.5V4.18C7.13,4.86 5,7.43 5,10.5V16L3,18V19H20V18M11.5,22A2,2 0 0,0 13.5,20H9.5A2,2 0 0,0 11.5,22Z" />
	</g>

	<!-- bell -->
	<g id="bell">
		<path d="M12,22A2,2 0 0,0 14,20H10A2,2 0 0,0 12,22M18,16V11C18,7.93 16.36,5.36 13.5,4.68V4A1.5,1.5 0 0,0 12,2.5A1.5,1.5 0 0,0 10.5,4V4.68C7.63,5.36 6,7.92 6,11V16L4,18V19H20V18L18,16Z" />
	</g>

	<!-- approval -->
	<g id="approval">
		<path d="M23,12L20.56,9.22L20.9,5.54L17.29,4.72L15.4,1.54L12,3L8.6,1.54L6.71,4.72L3.1,5.53L3.44,9.21L1,12L3.44,14.78L3.1,18.47L6.71,19.29L8.6,22.47L12,21L15.4,22.46L17.29,19.28L20.9,18.46L20.56,14.78L23,12M10,17L6,13L7.41,11.59L10,14.17L16.59,7.58L18,9L10,17Z" />
	</g>
	<!-- pulse -->
	<g id="pulse">
		<path d="M3,13H5.79L10.1,4.79L11.28,13.75L14.5,9.66L17.83,13H21V15H17L14.67,12.67L9.92,18.73L8.94,11.31L7,15H3V13Z" />
	</g>

	<!-- charts -->
	<g id="chart-line-variant">
		<path d="M3.5,18.5L9.5,12.5L13.5,16.5L22,6.92L20.59,5.5L13.5,13.5L9.5,9.5L2,17L3.5,18.5Z" />
	</g>

	<!-- star (full color) -->
	<g id="star">
		<path d="M12,17.27L18.18,21L16.54,13.97L22,9.24L14.81,8.62L12,2L9.19,8.62L2,9.24L7.45,13.97L5.82,21L12,17.27Z" />
	</g>

	<!-- star-outline -->
	<g id="star-outline">
		 <path d="M12,15.39L8.24,17.66L9.23,13.38L5.91,10.5L10.29,10.13L12,6.09L13.71,10.13L18.09,10.5L14.77,13.38L15.76,17.66M22,9.24L14.81,8.63L12,2L9.19,8.63L2,9.24L7.45,13.97L5.82,21L12,17.27L18.18,21L16.54,13.97L22,9.24Z" />
	</g>

	<!-- star-off -->
	<g id="star-off">
		<path d="M2,5.27L3.28,4L20,20.72L18.73,22L17.05,20.31L12,17.27L5.82,21L7.45,13.97L2,9.24L5.66,8.93L2,5.27M12,2L14.81,8.62L22,9.24L16.54,13.97L16.77,14.95L9.56,7.74L12,2Z" />
	</g>

	<!-- pin-outline -->
	<g id="pin-outline">
		<path d="M16,12V4H17V2H7V4H8V12L6,14V16H11.2V22H12.8V16H18V14L16,12M8.8,14L10,12.8V4H14V12.8L15.2,14H8.8Z" />
	</g>
	 
</defs></svg>